<?xml version="1.0" encoding="UTF-8" standalone="no"?>
<svg
   width="2500"
   height="532"
   viewBox="0 79 192.755 41.018264"
   version="1.1"
   id="svg8097"
   sodipodi:docname="lockheed-martin.svg"
   inkscape:version="1.2.1 (9c6d41e410, 2022-07-14)"
   xmlns:inkscape="http://www.inkscape.org/namespaces/inkscape"
   xmlns:sodipodi="http://sodipodi.sourceforge.net/DTD/sodipodi-0.dtd"
   xmlns="http://www.w3.org/2000/svg"
   xmlns:svg="http://www.w3.org/2000/svg">
  <defs
     id="defs8101" />
  <sodipodi:namedview
     id="namedview8099"
     pagecolor="#505050"
     bordercolor="#eeeeee"
     borderopacity="1"
     inkscape:showpageshadow="0"
     inkscape:pageopacity="0"
     inkscape:pagecheckerboard="0"
     inkscape:deskcolor="#505050"
     showgrid="false"
     inkscape:zoom="0.3256"
     inkscape:cx="1159.398"
     inkscape:cy="1223.8943"
     inkscape:window-width="1920"
     inkscape:window-height="1001"
     inkscape:window-x="-9"
     inkscape:window-y="-9"
     inkscape:window-maximized="1"
     inkscape:current-layer="svg8097" />
  <g
     fill-rule="evenodd"
     clip-rule="evenodd"
     id="g8095"
     style="fill:#ffffff">
    <path
       fill="#000"
       opacity="0"
       d="M 0,0 H 192.756 V 192.756 H 0 Z"
       id="path8089"
       style="fill:#ffffff" />
    <path
       d="m 189.922,92.897 h -13.725 c 1.801,-6.777 3.43,-12.524 3.43,-12.524 0,0 -6.176,6.605 -11.666,12.524 h -54.385 c -0.342,0 -0.342,0.172 0,0.172 0.172,0 53.355,0.943 53.355,0.943 -4.289,4.546 -6.605,7.12 -6.689,7.206 -0.172,0.172 0,0.258 0.17,0.086 0.086,-0.086 3.176,-2.918 7.549,-7.292 l 6.777,0.086 c -0.43,1.973 -0.771,3.774 -1.287,5.919 -8.32,4.461 -21.873,11.752 -21.873,11.752 -0.172,0.086 -0.086,0.258 0.086,0.172 0.086,-0.086 12.695,-6.434 21.529,-10.895 -1.457,6.605 -2.4,11.15 -2.4,11.236 -0.086,0.086 0.086,0.172 0.172,0 0,-0.086 1.285,-4.631 3.174,-11.666 7.89,-4.03 15.783,-7.719 15.783,-7.719 z m -20.846,0 c 4.117,-4.032 7.549,-7.292 7.549,-7.292 0,0 -0.6,2.831 -1.629,7.292 z m 6.778,1.202 8.234,0.171 c 0,0 -4.117,2.23 -9.693,5.232 0.515,-1.887 0.943,-3.516 1.459,-5.403 z"
       fill="#2d509f"
       id="path8091"
       style="fill:#ffffff" />
    <path
       fill="#696a6c"
       d="m 4.122,96.93 h 2.401 l -0.943,4.461 h 2.23 l -0.343,1.714 H 2.834 Z M 16.13,96.844 c 2.145,0 2.917,1.287 2.488,3.174 -0.429,1.887 -1.715,3.174 -3.86,3.174 -2.059,0 -2.831,-1.287 -2.402,-3.174 0.344,-1.887 1.716,-3.174 3.774,-3.174 z m -1.029,4.802 c 0.429,0 0.687,-0.256 1.029,-1.629 0.258,-1.373 0.086,-1.631 -0.343,-1.631 -0.343,0 -0.687,0.258 -0.943,1.631 -0.344,1.374 -0.086,1.629 0.257,1.629 z m 13.639,-0.857 c -0.343,1.717 -1.801,2.402 -3.345,2.402 -2.145,0 -2.831,-1.287 -2.402,-3.174 0.343,-1.973 1.715,-3.174 3.774,-3.174 1.544,0 2.745,0.6 2.316,2.402 h -2.23 c 0.172,-0.688 -0.086,-0.859 -0.343,-0.859 -0.687,0 -0.858,0.688 -1.029,1.631 -0.258,0.943 -0.343,1.629 0.257,1.629 0.343,0 0.601,-0.17 0.772,-0.857 z m 6.091,-3.859 h 2.316 l -0.515,2.658 1.802,-2.658 h 2.573 l -2.23,2.916 1.115,3.259 h -2.574 l -0.858,-2.744 -0.6,2.744 h -2.316 z m 13.725,3.859 h -1.03 l -0.429,2.316 h -2.402 l 1.287,-6.175 h 2.402 l -0.429,2.058 h 1.029 l 0.43,-2.058 h 2.401 l -1.287,6.175 h -2.402 z m 8.749,-3.859 h 4.633 l -0.344,1.629 h -2.316 l -0.172,0.687 h 2.145 l -0.343,1.543 h -2.145 l -0.171,0.688 h 2.402 l -0.344,1.628 h -4.717 z m 10.208,0 h 4.632 l -0.343,1.629 h -2.316 l -0.172,0.687 h 2.145 l -0.257,1.543 h -2.231 l -0.086,0.688 h 2.403 l -0.344,1.628 h -4.718 z m 10.208,0 h 2.916 c 2.402,0 2.917,1.373 2.574,3.174 -0.429,1.801 -1.887,3.002 -3.774,3.002 h -3.002 z m 1.372,4.716 h 0.257 c 0.429,0 0.686,-0.086 0.858,-0.342 0.257,-0.258 0.343,-0.688 0.515,-1.287 0.086,-0.602 0.171,-1.029 0,-1.287 -0.086,-0.258 -0.257,-0.344 -0.687,-0.344 h -0.171 z m 19.901,-2.916 -1.801,4.375 h -2.231 l 0.086,-4.375 -0.943,4.375 h -2.059 l 1.287,-6.175 h 3.345 l -0.086,3.687 1.459,-3.687 h 3.345 l -1.287,6.175 h -2.058 z m 9.094,-1.8 h 3.088 l 0.686,6.176 h -2.488 l -0.086,-1.029 h -1.715 l -0.43,1.029 h -2.314 z m 1.199,3.687 v -2.314 l -1.029,2.314 z m 9.094,-3.687 h 3.604 c 1.285,0 1.973,0.428 1.715,1.543 -0.172,0.773 -0.516,1.287 -1.545,1.459 v 0.086 c 0.602,0 0.859,0.258 0.859,0.771 0.084,0.516 -0.172,1.373 -0.086,2.316 h -2.316 c -0.086,-0.514 0,-1.287 0.086,-1.801 0,-0.258 -0.172,-0.43 -0.516,-0.43 h -0.342 l -0.43,2.23 h -2.402 z m 1.973,2.572 c 0.516,0 0.857,-0.172 0.943,-0.6 0.086,-0.43 -0.172,-0.516 -0.686,-0.516 h -0.172 l -0.258,1.115 h 0.173 z m 10.037,-0.857 h -1.459 l 0.343,-1.715 h 5.405 l -0.344,1.715 h -1.459 l -0.943,4.46 h -2.487 z m 9.693,-1.715 h 2.4 l -1.285,6.175 h -2.402 z m 8.148,0 h 2.916 l 0.516,3.687 0.857,-3.687 h 1.887 l -1.287,6.175 h -2.916 l -0.43,-3.775 h -0.086 l -0.771,3.775 h -1.973 z"
       id="path8093"
       style="fill:#ffffff" />
  </g>
</svg>
