<?xml version="1.0" encoding="UTF-8" standalone="no"?>
<svg
   id="Layer_1"
   data-name="Layer 1"
   viewBox="-25 0 346.00001 65.999998"
   version="1.1"
   sodipodi:docname="new logo.svg"
   width="346"
   height="66"
   inkscape:version="1.2.1 (9c6d41e410, 2022-07-14)"
   xmlns:inkscape="http://www.inkscape.org/namespaces/inkscape"
   xmlns:sodipodi="http://sodipodi.sourceforge.net/DTD/sodipodi-0.dtd"
   xmlns:xlink="http://www.w3.org/1999/xlink"
   xmlns="http://www.w3.org/2000/svg"
   xmlns:svg="http://www.w3.org/2000/svg">
  <sodipodi:namedview
     id="namedview51"
     pagecolor="#505050"
     bordercolor="#eeeeee"
     borderopacity="1"
     inkscape:showpageshadow="0"
     inkscape:pageopacity="0"
     inkscape:pagecheckerboard="0"
     inkscape:deskcolor="#505050"
     showgrid="false"
     inkscape:zoom="4.1343182"
     inkscape:cx="172.70079"
     inkscape:cy="26.001869"
     inkscape:window-width="1920"
     inkscape:window-height="1001"
     inkscape:window-x="-9"
     inkscape:window-y="-9"
     inkscape:window-maximized="1"
     inkscape:current-layer="Layer_1" />
  <defs
     id="defs24">
    <style
       id="style2">.cls-1,.cls-10,.cls-11,.cls-12,.cls-2,.cls-3,.cls-4,.cls-6,.cls-7,.cls-8,.cls-9{fill-rule:evenodd;}.cls-1{fill:url(#GradientFill_1);}.cls-2{fill:url(#GradientFill_1-2);}.cls-3{fill:url(#GradientFill_1-3);}.cls-4{fill:url(#GradientFill_1-4);}.cls-5{fill:url(#GradientFill_1-5);}.cls-6{fill:url(#GradientFill_1-6);}.cls-7{fill:url(#GradientFill_1-7);}.cls-8{fill:url(#GradientFill_1-8);}.cls-9{fill:url(#GradientFill_1-9);}.cls-10{fill:url(#GradientFill_1-10);}.cls-11{fill:url(#GradientFill_1-11);}.cls-12{fill:url(#GradientFill_1-12);}</style>
    <linearGradient
       id="GradientFill_1"
       x1="-43.64592"
       y1="76.981789"
       x2="-43.319962"
       y2="99.285522"
       gradientUnits="userSpaceOnUse">
      <stop
         offset="0"
         stop-color="#fff"
         id="stop4" />
      <stop
         offset="0.38"
         stop-color="#fafafd"
         id="stop6" />
      <stop
         offset="0.57"
         stop-color="#d6d5d5"
         id="stop8" />
      <stop
         offset="1"
         stop-color="#aba9a9"
         id="stop10" />
    </linearGradient>
    <linearGradient
       id="GradientFill_1-2"
       x1="43.883511"
       y1="22.090139"
       x2="44.295139"
       y2="44.396381"
       xlink:href="#GradientFill_1" />
    <linearGradient
       id="GradientFill_1-3"
       x1="66.050949"
       y1="22.08276"
       x2="66.401421"
       y2="44.28194"
       xlink:href="#GradientFill_1" />
    <linearGradient
       id="GradientFill_1-4"
       x1="37.271709"
       y1="76.984261"
       x2="37.61063"
       y2="99.290131"
       xlink:href="#GradientFill_1"
       gradientTransform="translate(58.14591,-54.89762)" />
    <linearGradient
       id="GradientFill_1-5"
       x1="233.58026"
       y1="22.347549"
       x2="236.68715"
       y2="44.221779"
       xlink:href="#GradientFill_1" />
    <linearGradient
       id="GradientFill_1-6"
       x1="185.03001"
       y1="22.09321"
       x2="185.3663"
       y2="44.439049"
       xlink:href="#GradientFill_1" />
    <linearGradient
       id="GradientFill_1-7"
       x1="157.07896"
       y1="22.223221"
       x2="157.50259"
       y2="44.347"
       xlink:href="#GradientFill_1" />
    <linearGradient
       id="GradientFill_1-8"
       x1="254.64722"
       y1="22.09321"
       x2="254.98351"
       y2="44.439049"
       xlink:href="#GradientFill_1" />
    <linearGradient
       id="GradientFill_1-9"
       x1="283.45401"
       y1="22.223221"
       x2="283.87766"
       y2="44.347"
       xlink:href="#GradientFill_1" />
    <linearGradient
       id="GradientFill_1-10"
       x1="158.16937"
       y1="77.11248"
       x2="158.51836"
       y2="99.28112"
       xlink:href="#GradientFill_1"
       gradientTransform="translate(58.14591,-54.89762)" />
    <linearGradient
       id="GradientFill_1-11"
       x1="232.57423"
       y1="55.273849"
       x2="233.54532"
       y2="106.27597"
       xlink:href="#GradientFill_1"
       gradientTransform="translate(58.14591,-54.89762)" />
    <linearGradient
       id="GradientFill_1-12"
       x1="69.153526"
       y1="77.130966"
       x2="69.430901"
       y2="99.341438"
       xlink:href="#GradientFill_1"
       gradientTransform="translate(58.14591,-54.89762)" />
    <linearGradient
       inkscape:collect="always"
       xlink:href="#GradientFill_1"
       id="linearGradient157"
       gradientUnits="userSpaceOnUse"
       x1="-43.64592"
       y1="76.981789"
       x2="-43.319962"
       y2="99.285522"
       gradientTransform="translate(58.14591,-54.89762)" />
  </defs>
  <path
     class="cls-1"
     d="m 0,22.0847 h 6.8584 v 12.6958 c 0,2.9673 0.5808,4.1953 3.6643,4.1953 h 8.1791 c 3.0835,0 3.6644,-1.228 3.6644,-4.1953 V 22.0847 h 6.8584 v 15.24268 c 0,5.3822 -2.454,7.1652 -7.4013,7.1652 H 7.4012 C 2.4539,44.49258 0,42.70958 0,37.32738 Z"
     id="path26"
     style="fill:url(#linearGradient157)" />
  <polygon
     class="cls-2"
     points="39.878,22.085 39.878,38.683 55.764,38.683 55.764,44.394 39.878,44.394 32.739,44.394 32.721,44.394 32.721,22.085 "
     id="polygon28"
     style="fill:url(#GradientFill_1-2)" />
  <polygon
     class="cls-3"
     points="79.59,22.085 79.59,27.781 69.636,27.781 69.636,44.439 62.555,44.439 62.555,27.781 52.602,27.781 52.602,22.085 "
     id="polygon30"
     style="fill:url(#GradientFill_1-3)" />
  <path
     class="cls-4"
     d="m 81.6318,22.0847 h 23.0476 a 4.95188,4.95188 0 0 1 4.9374,4.9374 v 3.941 c 0,4.5646 -2.2597,4.3571 -4.123,4.8302 2.9399,-0.0272 3.9354,1.355 3.9354,3.047 v 5.5536 h -6.7167 V 40.8863 A 2.11793,2.11793 0 0 0 100.601,38.7748 H 88.8823 v 5.6191 h -7.2505 z m 7.0044,5.5962 v 5.4856 h 12.8764 a 1.34278,1.34278 0 0 0 1.3391,-1.3391 v -2.8075 a 1.3427,1.3427 0 0 0 -1.3391,-1.339 z"
     id="path32"
     style="fill:url(#GradientFill_1-4)" />
  <rect
     class="cls-5"
     x="233.6366"
     y="22.128099"
     width="2.9939001"
     height="22.3109"
     id="rect34"
     style="fill:url(#GradientFill_1-5)" />
  <polygon
     class="cls-6"
     points="174.755,24.941 174.063,24.944 174.129,44.439 171.105,44.439 170.978,22.093 176.092,22.093 195.604,41.691 196.318,41.691 196.161,22.085 199.291,22.085 199.291,44.439 194.133,44.439 "
     id="polygon36"
     style="fill:url(#GradientFill_1-6)" />
  <polygon
     class="cls-7"
     points="150.09,41.751 168.326,41.751 168.326,44.347 146.301,44.347 146.301,22.22 168.281,22.22 168.281,24.816 150.09,24.816 150.09,31.615 167.487,31.615 167.487,34.21 150.09,34.21 "
     id="polygon38"
     style="fill:url(#GradientFill_1-7)" />
  <polygon
     class="cls-8"
     points="244.352,24.952 243.68,24.944 243.746,44.439 240.722,44.439 240.595,22.093 245.709,22.093 265.222,41.691 265.935,41.691 265.779,22.085 268.908,22.085 268.908,44.439 263.75,44.439 "
     id="polygon40"
     style="fill:url(#GradientFill_1-8)" />
  <polygon
     class="cls-9"
     points="276.465,41.751 294.701,41.751 294.701,44.347 272.676,44.347 272.676,22.22 294.656,22.22 294.656,24.816 276.465,24.816 276.465,31.615 293.863,31.615 293.863,34.21 276.465,34.21 "
     id="polygon42"
     style="fill:url(#GradientFill_1-9)" />
  <path
     class="cls-10"
     d="m 203.3696,26.7789 c 0.4952,-3.0456 2.1458,-4.1386 5.4658,-4.4331 a 91.26457,91.26457 0 0 1 15.1387,-0.0352 c 4.1499,0.3161 6.3,2.6153 6.0454,6.7782 l -3.05,6e-4 c 0.0663,-1.7527 -0.0533,-3.6215 -2.1053,-3.9027 a 76.67416,76.67416 0 0 0 -14.4065,-0.2776 c -4.9505,0.2674 -4.5658,2.3811 -4.5658,9.2702 -0.0938,4.0507 -0.1148,6.9106 3.3114,7.2558 0.3793,0.0383 0.7923,0.1123 1.2544,0.1369 a 69.317,69.317 0 0 0 14.3126,-0.2072 c 2.6915,-0.4192 2.3355,-3.5801 2.3789,-5.6299 h -11.6068 v -2.6243 h 14.61751 l -0.1404,4.2818 c 0.036,4.1317 -0.7398,6.1979 -6.0454,6.7782 a 66.31666,66.31666 0 0 1 -15.1387,-0.0352 c -3.0623,-0.3719 -4.7154,-1.2291 -5.3357,-3.7845 -0.97651,-4.0184 -0.76991,-9.6347 -0.13011,-13.572 z"
     id="path44"
     style="fill:url(#GradientFill_1-10)" />
  <path
     class="cls-11"
     d="m 279.6417,15.6948 h -10.6171 l -3.7886,-5.6497 4.6418,-4.608 5.7163,3.9461 a 23.86653,23.86653 0 0 1 8.1391,-3.1164 L 285.0896,0 h 6.569 l 1.3669,6.2668 a 19.9443,19.9443 0 0 1 8.1402,2.8806 l 5.6946,-3.856 4.5955,4.6415 -3.9118,5.7619 a 22.05526,22.05526 0 0 1 3.2389,8.1165 l 6.0771,1.3345 v 6.5693 l -6.3223,1.3454 a 22.99023,22.99023 0 0 1 -2.8585,8.1053 l 3.8211,5.7603 -4.6732,4.6423 -5.6614,-3.7556 v -10.65 c 3.4708,-3.5323 4.2622,-13.4519 -1.6491,-19.5917 a 15.5857,15.5857 0 0 0 -19.8749,-1.8763 z"
     id="path46"
     style="fill:url(#GradientFill_1-11)" />
  <path
     class="cls-12"
     d="M 144.6358,44.439 132.93891,22.0847 H 122.3484 L 110.5177,44.439 h 7.7746 l 1.8898,-3.7499 h 14.8286 l 1.8822,3.7499 z m -21.9697,-8.6791 4.2738,-8.4801 h 1.3402 l 4.2565,8.4801 z"
     id="path48"
     style="fill:url(#GradientFill_1-12)" />
</svg>
