<svg id="Layer_1" data-name="Layer 1" xmlns="http://www.w3.org/2000/svg" xmlns:xlink="http://www.w3.org/1999/xlink" viewBox="0 0 322.64869 51.5684"><defs><style>.cls-1,.cls-10,.cls-11,.cls-12,.cls-13,.cls-14,.cls-2,.cls-3,.cls-4,.cls-6,.cls-7,.cls-8,.cls-9{fill-rule:evenodd;}.cls-1{fill:url(#GradientFill_1);}.cls-2{fill:url(#GradientFill_1-2);}.cls-3{fill:url(#GradientFill_1-3);}.cls-4{fill:url(#GradientFill_1-4);}.cls-5{fill:url(#GradientFill_1-5);}.cls-6{fill:url(#GradientFill_1-6);}.cls-7{fill:url(#GradientFill_1-7);}.cls-8{fill:url(#GradientFill_1-8);}.cls-9{fill:url(#GradientFill_1-9);}.cls-10{fill:url(#GradientFill_1-10);}.cls-11{fill:url(#GradientFill_1-11);}.cls-12{fill:url(#GradientFill_1-12);}.cls-13{fill:url(#GradientFill_1-13);}.cls-14{fill:url(#GradientFill_1-14);}</style><linearGradient id="GradientFill_1" x1="-40.82436" y1="100.0021" x2="-40.4984" y2="122.30583" gradientUnits="userSpaceOnUse"><stop offset="0" stop-color="#fff"/><stop offset="0.38" stop-color="#fafafd"/><stop offset="0.57" stop-color="#d6d5d5"/><stop offset="1" stop-color="#aba9a9"/></linearGradient><linearGradient id="GradientFill_1-2" x1="43.88356" y1="22.09014" x2="44.29519" y2="44.39638" xlink:href="#GradientFill_1"/><linearGradient id="GradientFill_1-3" x1="66.051" y1="22.08276" x2="66.40147" y2="44.28194" xlink:href="#GradientFill_1"/><linearGradient id="GradientFill_1-4" x1="40.09332" y1="100.00457" x2="40.43224" y2="122.31044" xlink:href="#GradientFill_1"/><linearGradient id="GradientFill_1-5" x1="233.58031" y1="22.34754" x2="236.6872" y2="44.22179" xlink:href="#GradientFill_1"/><linearGradient id="GradientFill_1-6" x1="185.03012" y1="22.09321" x2="185.3664" y2="44.43905" xlink:href="#GradientFill_1"/><linearGradient id="GradientFill_1-7" x1="157.07901" y1="22.22322" x2="157.50264" y2="44.347" xlink:href="#GradientFill_1"/><linearGradient id="GradientFill_1-8" x1="254.64731" y1="22.09321" x2="254.9836" y2="44.43905" xlink:href="#GradientFill_1"/><linearGradient id="GradientFill_1-9" x1="283.45405" y1="22.22322" x2="283.87769" y2="44.347" xlink:href="#GradientFill_1"/><linearGradient id="GradientFill_1-10" x1="160.99097" y1="100.13279" x2="161.33996" y2="122.30143" xlink:href="#GradientFill_1"/><linearGradient id="GradientFill_1-11" x1="235.39589" y1="78.29416" x2="236.36698" y2="129.29628" xlink:href="#GradientFill_1"/><linearGradient id="GradientFill_1-12" x1="71.97509" y1="100.15128" x2="72.25246" y2="122.36175" xlink:href="#GradientFill_1"/><linearGradient id="GradientFill_1-13" x1="262.31223" y1="113.6783" x2="262.49628" y2="123.33474" xlink:href="#GradientFill_1"/><linearGradient id="GradientFill_1-14" x1="262.5954" y1="116.13371" x2="262.69825" y2="120.88058" xlink:href="#GradientFill_1"/></defs><path class="cls-1" d="M-55.32435,100.00263h6.8584v12.6958c0,2.9673.5809,4.1953,3.6644,4.1953h8.1791c3.0835,0,3.6643-1.228,3.6643-4.1953v-12.6958h6.8584v15.2427c0,5.3822-2.4539,7.1652-7.4012,7.1652h-14.4221c-4.9473,0-7.4013-1.783-7.4013-7.1652Z" transform="translate(55.32435 -77.91793)"/><polygon class="cls-2" points="32.721 22.085 39.878 22.085 39.878 38.683 55.764 38.683 55.764 44.394 39.878 44.394 32.739 44.394 32.721 44.394 32.721 22.085"/><polygon class="cls-3" points="52.602 22.085 79.59 22.085 79.59 27.781 69.636 27.781 69.636 44.439 62.555 44.439 62.555 27.781 52.602 27.781 52.602 22.085"/><path class="cls-4" d="M26.30745,100.00263h23.0477a4.95188,4.95188,0,0,1,4.9374,4.9374v3.941c0,4.5646-2.2598,4.3571-4.123,4.8302,2.9398-.0272,3.9353,1.355,3.9353,3.047v5.5536h-6.7167v-3.5076a2.11787,2.11787,0,0,0-2.1115-2.1115H33.558v5.6191h-7.2505v-22.3092Zm7.0045,5.5962v5.4856h12.8763a1.34272,1.34272,0,0,0,1.3391-1.3391v-2.8075a1.34263,1.34263,0,0,0-1.3391-1.339Z" transform="translate(55.32435 -77.91793)"/><rect class="cls-5" x="233.63659" y="22.1281" width="2.994" height="22.3109"/><polygon class="cls-6" points="171.105 44.439 170.978 22.093 176.092 22.093 195.604 41.691 196.318 41.691 196.161 22.085 199.291 22.085 199.291 44.439 194.133 44.439 174.755 24.941 174.063 24.944 174.129 44.439 171.105 44.439"/><polygon class="cls-7" points="146.301 44.347 146.301 22.22 168.281 22.22 168.281 24.816 150.09 24.816 150.09 31.615 167.488 31.615 167.488 34.21 150.09 34.21 150.09 41.751 168.326 41.751 168.326 44.347 146.301 44.347"/><polygon class="cls-8" points="240.722 44.439 240.595 22.093 245.709 22.093 265.222 41.691 265.935 41.691 265.779 22.085 268.908 22.085 268.908 44.439 263.75 44.439 244.352 24.952 243.68 24.944 243.746 44.439 240.722 44.439"/><polygon class="cls-9" points="272.676 44.347 272.676 22.22 294.656 22.22 294.656 24.816 276.465 24.816 276.465 31.615 293.863 31.615 293.863 34.21 276.465 34.21 276.465 41.751 294.701 41.751 294.701 44.347 272.676 44.347"/><path class="cls-10" d="M148.04535,104.69683c.4952-3.0456,2.1458-4.1386,5.4657-4.4331a91.26461,91.26461,0,0,1,15.1387-.0352c4.15.3161,6.3,2.6153,6.0455,6.7782l-3.0501.0006c.0663-1.7527-.0533-3.6215-2.1053-3.9027a76.674,76.674,0,0,0-14.4065-.2776c-4.9504.2674-4.5658,2.3811-4.5658,9.2702-.0938,4.0507-.1148,6.9106,3.3115,7.2558.3793.0383.7923.1123,1.2543.1369a69.31786,69.31786,0,0,0,14.3127-.2072c2.6915-.4192,2.3355-3.5801,2.3788-5.6299h-11.6067v-2.6243h14.6174l-.1403,4.2818c.036,4.1317-.7398,6.1979-6.0455,6.7782a66.31666,66.31666,0,0,1-15.1387-.0352c-3.0622-.3719-4.7154-1.2291-5.3356-3.7845C147.199,114.25043,147.40555,108.63413,148.04535,104.69683Z" transform="translate(55.32435 -77.91793)"/><path class="cls-11" d="M224.31745,93.61273h-10.6172l-3.7885-5.6497,4.6417-4.608,5.7164,3.9461a23.86653,23.86653,0,0,1,8.1391-3.1164l1.3564-6.2668h6.569l1.3669,6.2668a19.94537,19.94537,0,0,1,8.1402,2.8806l5.6945-3.856,4.5955,4.6415-3.9118,5.7619a22.05181,22.05181,0,0,1,3.2389,8.1165l6.0772,1.3345v6.5693l-6.3224,1.3454a22.99012,22.99012,0,0,1-2.8584,8.1053l3.8211,5.7603-4.6732,4.6423-5.6614-3.7556v-10.65c3.4707-3.5323,4.2622-13.4519-1.6492-19.5917A15.58556,15.58556,0,0,0,224.31745,93.61273Z" transform="translate(55.32435 -77.91793)"/><path class="cls-12" d="M89.31145,122.35693l-11.6969-22.3543H67.02405l-11.8307,22.3543H62.968l1.8899-3.7499h14.8286l1.8822,3.7499Zm-21.9696-8.6791,4.2738-8.4801h1.3402l4.2565,8.4801Z" transform="translate(55.32435 -77.91793)"/><path class="cls-13" d="M262.40425,113.58593a4.92056,4.92056,0,1,1-3.4789,1.4412,4.9035,4.9035,0,0,1,3.4789-1.4412Zm3.1859,1.7343a4.505,4.505,0,1,0,1.3198,3.1858A4.492,4.492,0,0,0,265.59015,115.32023Z" transform="translate(55.32435 -77.91793)"/><path class="cls-14" d="M260.60965,120.88033v-4.7486h2.1047a2.80968,2.80968,0,0,1,.965.1282,1.05484,1.05484,0,0,1,.5272.451,1.34765,1.34765,0,0,1,.1967.7154,1.1959,1.1959,0,0,1-.3271.8521,1.65509,1.65509,0,0,1-1.0091.44,1.624,1.624,0,0,1,.379.2364,3.18924,3.18924,0,0,1,.5196.6324l.8212,1.2931h-.7847l-.6278-.9881c-.1823-.2863-.334-.5043-.4522-.6554a1.43984,1.43984,0,0,0-.3194-.3172.96023.96023,0,0,0-.2863-.1261,1.97087,1.97087,0,0,0-.3493-.0221h-.7273v2.1089Zm.6302-2.6526h1.3487a2.00589,2.00589,0,0,0,.6718-.0896.69874.69874,0,0,0,.3668-.2852.76842.76842,0,0,0,.1264-.4257.71046.71046,0,0,0-.2435-.5548,1.13544,1.13544,0,0,0-.769-.2165h-1.5012Z" transform="translate(55.32435 -77.91793)"/></svg>