<?xml version="1.0" encoding="UTF-8" standalone="no"?>
<svg
   width="512"
   height="512"
   version="1.1"
   viewBox="0 0 135 135"
   id="svg1"
   sodipodi:docname="scpicon.svg"
   inkscape:version="1.3.2 (091e20e, 2023-11-25, custom)"
   inkscape:export-filename="scp.png"
   inkscape:export-xdpi="96"
   inkscape:export-ydpi="96"
   xmlns:inkscape="http://www.inkscape.org/namespaces/inkscape"
   xmlns:sodipodi="http://sodipodi.sourceforge.net/DTD/sodipodi-0.dtd"
   xmlns:xlink="http://www.w3.org/1999/xlink"
   xmlns="http://www.w3.org/2000/svg"
   xmlns:svg="http://www.w3.org/2000/svg">
  <defs
     id="defs1">
    <rect
       x="391.63946"
       y="56.126675"
       width="72.964677"
       height="80.448234"
       id="rect1" />
  </defs>
  <sodipodi:namedview
     id="namedview1"
     pagecolor="#000000"
     bordercolor="#000000"
     borderopacity="0.25"
     inkscape:showpageshadow="true"
     inkscape:pageopacity="0.0"
     inkscape:pagecheckerboard="true"
     inkscape:deskcolor="#d1d1d1"
     showborder="false"
     inkscape:zoom="1.6035156"
     inkscape:cx="255.68819"
     inkscape:cy="254.75274"
     inkscape:window-width="1920"
     inkscape:window-height="1017"
     inkscape:window-x="-8"
     inkscape:window-y="-8"
     inkscape:window-maximized="1"
     inkscape:current-layer="svg1" />
  <circle
     cx="67.7"
     cy="71.5"
     r="33"
     fill="none"
     stroke="#000"
     stroke-width="6"
     id="circle1"
     style="stroke:#ffffff;stroke-opacity:1" />
  <path
     d="m51.9 11.9h31.7l3.07 11.4.944.391c19.4 8.03 32 26.9 32 47.9 0 2.26-.149 4.53-.445 6.77l-.133 1.01 8.37 8.37-15.8 27.4-11.4-3.06-.809.623c-9.06 6.95-20.2 10.7-31.6 10.7-11.4 6e-5-22.5-3.77-31.6-10.7l-.81-.623-11.4 3.06-15.8-27.4 8.37-8.37-.133-1.01c-.296-2.25-.445-4.51-.445-6.77.000141-21 12.6-39.9 32-47.9l.944-.391z"
     fill="none"
     stroke="#000"
     stroke-width="4"
     id="path1"
     style="stroke:#ffffff;stroke-opacity:1" />
  <path
     id="b"
     d="m64.7 30.6v24h-5.08l8.08 14 8.08-14h-5.08l-.000265-24h-5.99"
     style="fill:#ffffff" />
  <use
     id="a"
     transform="rotate(120 67.7 71.5)"
     xlink:href="#b" />
  <use
     transform="rotate(120 67.7 71.5)"
     xlink:href="#a"
     id="use1"
     style="fill:#ffffff" />
</svg>
