<?xml version="1.0" encoding="UTF-8" standalone="no"?>
<!DOCTYPE svg PUBLIC "-//W3C//DTD SVG 1.1//EN" "http://www.w3.org/Graphics/SVG/1.1/DTD/svg11.dtd">
<svg width="100%" height="100%" viewBox="0 0 977 512" version="1.1" xmlns="http://www.w3.org/2000/svg" xmlns:xlink="http://www.w3.org/1999/xlink" xml:space="preserve" xmlns:serif="http://www.serif.com/" style="fill-rule:evenodd;clip-rule:evenodd;">
    <g transform="matrix(1,0,0,1,-448,-284)">
        <g id="SCPCB2_Logo_BAW.svg" transform="matrix(1,0,0,1,704,540)">
            <g transform="matrix(1,0,0,1,-256,-256)">
                <clipPath id="_clip1">
                    <rect x="0" y="0" width="512" height="512"/>
                </clipPath>
                <g clip-path="url(#_clip1)">
                    <path id="outer" d="M196.836,45.132L317.061,45.132L328.704,88.367L332.284,89.85C405.861,120.305 453.647,191.871 453.647,271.515C453.647,280.087 453.082,288.696 451.959,297.191L451.455,301.022L483.199,332.766L423.276,436.683L380.041,425.078L376.972,427.44C342.611,453.799 300.362,468.021 257.126,468.021C213.891,468.021 171.793,453.723 137.28,427.44L134.208,425.078L90.973,436.683L31.05,332.766L62.794,301.022L62.29,297.191C61.167,288.658 60.602,280.087 60.602,271.515C60.602,191.871 108.389,120.191 181.965,89.85L185.545,88.367L196.836,45.132Z" style="fill:none;fill-rule:nonzero;stroke:rgb(240,240,240);stroke-width:15.17px;"/>
                    <circle id="inner" cx="256.759" cy="271.17" r="125.156" style="fill:none;stroke:rgb(240,240,240);stroke-width:22.76px;"/>
                    <path id="top" d="M245.381,116.053L245.381,207.076L226.114,207.076L256.759,260.172L287.403,207.076L268.136,207.076L268.135,116.053L245.418,116.053" style="fill:rgb(240,240,240);fill-rule:nonzero;"/>
                    <g id="right" transform="matrix(-0.5,0.866025,-0.866025,-0.5,619.978,184.396)">
                        <path d="M245.381,116.053L245.381,207.076L226.114,207.076L256.759,260.172L287.403,207.076L268.136,207.076L268.135,116.053L245.418,116.053" style="fill:rgb(240,240,240);fill-rule:nonzero;"/>
                    </g>
                    <g id="left" transform="matrix(0.5,0.866025,0.866025,-0.5,-106.461,184.396)">
                        <path d="M245.381,116.053L245.381,207.076L226.114,207.076L256.759,260.172L287.403,207.076L268.136,207.076L268.135,116.053L245.418,116.053" style="fill:rgb(240,240,240);fill-rule:nonzero;"/>
                    </g>
                    <circle id="inner1" serif:id="inner" cx="256.759" cy="271.17" r="125.156" style="fill:none;stroke:rgb(240,240,240);stroke-width:22.76px;"/>
                    <path id="top1" serif:id="top" d="M245.381,116.053L245.381,207.076L226.114,207.076L256.759,260.172L287.403,207.076L268.136,207.076L268.135,116.053L245.418,116.053" style="fill:rgb(240,240,240);fill-rule:nonzero;"/>
                    <g id="right1" serif:id="right" transform="matrix(-0.5,0.866025,-0.866025,-0.5,619.978,184.396)">
                        <path d="M245.381,116.053L245.381,207.076L226.114,207.076L256.759,260.172L287.403,207.076L268.136,207.076L268.135,116.053L245.418,116.053" style="fill:rgb(240,240,240);fill-rule:nonzero;"/>
                    </g>
                    <g id="left1" serif:id="left" transform="matrix(0.5,0.866025,0.866025,-0.5,-106.461,184.396)">
                        <path d="M245.381,116.053L245.381,207.076L226.114,207.076L256.759,260.172L287.403,207.076L268.136,207.076L268.135,116.053L245.418,116.053" style="fill:rgb(240,240,240);fill-rule:nonzero;"/>
                    </g>
                </g>
            </g>
        </g>
        <g transform="matrix(1,0,0,1,366.739,-225.881)">
            <path d="M743.144,643.892L675.752,643.892C653,643.892 625.64,660.02 625.64,697.46C625.64,748.148 705.704,769.46 705.704,790.772C705.704,799.412 699.944,805.172 692.456,805.172L626.216,805.172L626.216,845.492L693.608,845.492C737.96,845.492 750.632,812.66 750.632,784.436C750.632,742.388 670.568,714.74 670.568,696.596C670.568,688.244 675.176,681.332 685.544,681.332L743.144,681.332L743.144,643.892Z" style="fill:rgb(235,235,235);fill-rule:nonzero;"/>
            <path d="M897.224,643.892L863.816,643.892C815.432,643.892 768.776,683.636 768.776,744.692C768.776,805.748 815.432,845.492 863.816,845.492L897.224,845.492L897.224,805.172L866.12,805.172C836.744,805.172 813.704,773.204 813.704,744.692C813.704,716.18 836.744,684.212 866.12,684.212L897.224,684.212L897.224,643.892Z" style="fill:rgb(235,235,235);fill-rule:nonzero;"/>
            <path d="M960.872,845.492L960.872,709.556C960.872,691.412 971.528,680.756 988.232,680.756C1004.94,680.756 1015.59,691.412 1015.59,709.556C1015.59,734.612 996.584,737.78 972.68,737.78L972.68,778.1L988.232,778.1C1031.43,778.1 1058.22,746.996 1058.22,709.268C1058.22,670.964 1029.99,640.436 988.232,640.436C944.456,640.436 918.248,672.404 918.248,709.268L918.248,845.492L960.872,845.492Z" style="fill:rgb(235,235,235);fill-rule:nonzero;"/>
        </g>
        <g transform="matrix(0.985089,0,0,1,378.12,-148.897)">
            <path d="M623.264,854.852L641.48,854.852L641.48,852.044L636.296,851.468C632.768,851.036 632.12,850.532 632.12,846.14L632.12,801.356C632.12,796.892 632.768,796.46 636.296,796.028L641.48,795.452L641.48,792.644L623.264,792.644L623.264,854.852Z" style="fill:rgb(235,235,235);fill-rule:nonzero;"/>
            <path d="M645.728,845.492L669.416,845.492L669.416,842.612L666.752,842.108C664.52,841.604 663.8,841.244 663.8,836.924L663.8,824.18C664.16,824.18 668.264,824.252 668.84,824.252C671.72,831.02 676.4,839.876 680.72,845.492L696.416,845.492L696.416,842.612L695.048,842.252C692.744,841.532 692.24,841.532 691.448,840.452C687.56,835.052 683.24,827.636 680.072,821.3L680.072,821.012C686.84,819.068 690.152,814.82 690.152,808.772C690.152,800.06 684.104,795.596 669.704,795.596L645.728,795.596L645.728,798.404L648.248,798.98C650.48,799.484 651.128,799.772 651.128,804.164L651.128,836.924C651.128,841.244 650.48,841.604 648.248,842.108L645.728,842.612L645.728,845.492ZM667.544,820.436C665.744,820.436 664.16,820.22 663.8,820.148L663.8,799.916C664.736,799.7 666.68,799.412 669.128,799.412C675.032,799.412 677.048,801.356 677.048,809.708C677.048,817.7 674.168,820.436 667.544,820.436Z" style="fill:rgb(235,235,235);fill-rule:nonzero;"/>
            <path d="M698.648,845.492L741.344,845.492L742.424,828.5L739.256,828.5C737.312,833.108 735.8,836.204 734.432,838.076C731.984,841.316 730.904,841.604 724.784,841.604C717.152,841.604 716.936,841.676 716.936,835.124L716.936,821.588L718.304,821.588C723.92,821.588 724.856,821.804 725.864,823.676C726.872,825.692 727.448,826.556 728.024,828.86L731.192,828.86L731.192,810.644L728.024,810.644C727.448,812.948 726.872,813.812 725.864,815.54C724.856,817.196 723.632,817.628 718.304,817.628L716.936,817.628L716.936,800.132C718.232,799.844 720.032,799.484 724.136,799.484C729.32,799.484 731.048,799.412 733.352,802.364C734.504,803.948 735.728,805.964 737.456,809.996L740.624,809.996L739.832,795.596L698.648,795.596L698.648,798.404L701.168,798.98C703.4,799.484 704.048,799.772 704.048,804.164L704.048,836.924C704.048,841.244 703.4,841.604 701.168,842.108L698.648,842.612L698.648,845.492Z" style="fill:rgb(235,235,235);fill-rule:nonzero;"/>
            <path d="M746.384,845.492L770.792,845.492C786.704,845.492 796.856,836.132 796.856,819.716C796.856,802.652 786.488,795.596 771.152,795.596L746.384,795.596L746.384,798.404L748.904,798.98C751.136,799.484 751.784,799.772 751.784,804.164L751.784,836.924C751.784,841.244 751.136,841.604 748.904,842.108L746.384,842.612L746.384,845.492ZM770.072,841.676C765.536,841.676 764.672,840.596 764.672,834.908L764.672,800.06C765.536,799.7 767.48,799.412 769.928,799.412C779.072,799.412 783.392,804.452 783.392,821.372C783.392,835.268 779.648,841.676 770.072,841.676Z" style="fill:rgb(235,235,235);fill-rule:nonzero;"/>
            <path d="M796.496,845.492L812.768,845.492L812.768,842.612L810.68,842.108C808.448,841.532 807.512,841.1 807.512,839.372C807.512,838.148 808.016,836.996 808.664,834.98L810.248,830.444L825.872,830.444L827.528,834.98C828.248,837.068 828.824,838.436 828.824,839.66C828.824,841.028 828.104,841.604 826.16,842.108L824.144,842.612L824.144,845.492L847.688,845.492L847.688,842.612L845.96,842.252C843.944,841.604 843.008,841.028 841.064,836.06L825.656,795.596L818.312,795.596L803.48,835.772C801.464,840.884 800.6,841.532 798.44,842.108L796.496,842.612L796.496,845.492ZM817.808,808.7L818.168,808.7L824.504,826.484L811.616,826.484L817.808,808.7Z" style="fill:rgb(235,235,235);fill-rule:nonzero;"/>
            <path d="M873.68,846.356C880.088,846.356 885.632,844.844 889.16,843.404L889.952,829.076L887,829.076C885.2,833.468 883.976,835.628 882.032,838.436C879.872,841.244 878.288,842.684 873.68,842.684C865.328,842.684 861.368,838.148 861.368,819.5C861.368,803.804 864.824,798.404 873.752,798.404C877.496,798.404 878.648,798.62 880.664,801.14C882.536,803.516 884.192,806.828 886.424,811.292L889.448,811.292L888.656,796.388C885.488,795.524 880.304,794.732 874.688,794.732C860.36,794.732 847.76,802.292 847.76,820.94C847.76,838.076 858.344,846.356 873.68,846.356Z" style="fill:rgb(235,235,235);fill-rule:nonzero;"/>
            <path d="M904.208,845.492L928.832,845.492L928.832,842.612L926.024,842.108C923.288,841.532 923,841.244 923,836.924L923,799.412C927.824,799.412 928.904,799.628 931.064,802.58C932.864,805.028 933.872,807.908 935.816,812.732L939.056,812.732L938.336,795.596L894.704,795.596L893.984,812.732L897.224,812.732C899.312,807.908 900.248,805.028 902.048,802.58C903.992,799.772 905.432,799.412 910.112,799.412L910.112,836.924C910.112,841.244 909.68,841.532 907.016,842.108L904.208,842.612L904.208,845.492Z" style="fill:rgb(235,235,235);fill-rule:nonzero;"/>
            <path d="M942.512,845.492L985.208,845.492L986.288,828.5L983.12,828.5C981.176,833.108 979.664,836.204 978.296,838.076C975.848,841.316 974.768,841.604 968.648,841.604C961.016,841.604 960.8,841.676 960.8,835.124L960.8,821.588L962.168,821.588C967.784,821.588 968.72,821.804 969.728,823.676C970.736,825.692 971.312,826.556 971.888,828.86L975.056,828.86L975.056,810.644L971.888,810.644C971.312,812.948 970.736,813.812 969.728,815.54C968.72,817.196 967.496,817.628 962.168,817.628L960.8,817.628L960.8,800.132C962.096,799.844 963.896,799.484 968,799.484C973.184,799.484 974.912,799.412 977.216,802.364C978.368,803.948 979.592,805.964 981.32,809.996L984.488,809.996L983.696,795.596L942.512,795.596L942.512,798.404L945.032,798.98C947.264,799.484 947.912,799.772 947.912,804.164L947.912,836.924C947.912,841.244 947.264,841.604 945.032,842.108L942.512,842.612L942.512,845.492Z" style="fill:rgb(235,235,235);fill-rule:nonzero;"/>
            <path d="M990.248,845.492L1014.66,845.492C1030.57,845.492 1040.72,836.132 1040.72,819.716C1040.72,802.652 1030.35,795.596 1015.02,795.596L990.248,795.596L990.248,798.404L992.768,798.98C995,799.484 995.648,799.772 995.648,804.164L995.648,836.924C995.648,841.244 995,841.604 992.768,842.108L990.248,842.612L990.248,845.492ZM1013.94,841.676C1009.4,841.676 1008.54,840.596 1008.54,834.908L1008.54,800.06C1009.4,799.7 1011.34,799.412 1013.79,799.412C1022.94,799.412 1027.26,804.452 1027.26,821.372C1027.26,835.268 1023.51,841.676 1013.94,841.676Z" style="fill:rgb(235,235,235);fill-rule:nonzero;"/>
            <path d="M1062.68,792.644L1044.46,792.644L1044.46,795.452L1049.5,796.028C1053.18,796.46 1053.82,796.892 1053.82,801.356L1053.82,846.14C1053.82,850.532 1053.18,851.036 1049.5,851.468L1044.46,852.044L1044.46,854.852L1062.68,854.852L1062.68,792.644Z" style="fill:rgb(235,235,235);fill-rule:nonzero;"/>
        </g>
    </g>
</svg>