<?xml version="1.0" encoding="UTF-8" standalone="no"?>
<svg
   id="Layer_1"
   data-name="Layer 1"
   viewBox="0 0 151.2445 151.2445"
   version="1.1"
   sodipodi:docname="ultraicon.svg"
   inkscape:version="1.2.1 (9c6d41e410, 2022-07-14)"
   xmlns:inkscape="http://www.inkscape.org/namespaces/inkscape"
   xmlns:sodipodi="http://sodipodi.sourceforge.net/DTD/sodipodi-0.dtd"
   xmlns:xlink="http://www.w3.org/1999/xlink"
   xmlns="http://www.w3.org/2000/svg"
   xmlns:svg="http://www.w3.org/2000/svg">
  <sodipodi:namedview
     id="namedview22"
     pagecolor="#505050"
     bordercolor="#eeeeee"
     borderopacity="1"
     inkscape:showpageshadow="0"
     inkscape:pageopacity="0"
     inkscape:pagecheckerboard="0"
     inkscape:deskcolor="#505050"
     showgrid="false"
     inkscape:zoom="5.3820136"
     inkscape:cx="70.41974"
     inkscape:cy="75.715156"
     inkscape:window-width="1920"
     inkscape:window-height="1001"
     inkscape:window-x="-9"
     inkscape:window-y="-9"
     inkscape:window-maximized="1"
     inkscape:current-layer="Layer_1" />
  <defs
     id="defs13">
    <linearGradient
       inkscape:collect="always"
       id="linearGradient1758">
      <stop
         style="stop-color:#ffffff;stop-opacity:1;"
         offset="0"
         id="stop1754" />
      <stop
         style="stop-color:#ffffff;stop-opacity:0.82499999;"
         offset="0.42176741"
         id="stop1762" />
      <stop
         style="stop-color:#ffffff;stop-opacity:0.51249999;"
         offset="1"
         id="stop1756" />
    </linearGradient>
    <style
       id="style2">.cls-1,.cls-3{fill-rule:evenodd;}.cls-1{fill:url(#GradientFill_1);}.cls-2{fill:#010101;}.cls-3{fill:#fff;}</style>
    <linearGradient
       id="GradientFill_1"
       x1="144.58064"
       y1="87.98144"
       x2="61.3976"
       y2="156.04025"
       gradientUnits="userSpaceOnUse">
      <stop
         offset="0"
         stop-color="#53c3c0"
         id="stop4" />
      <stop
         offset="0.27318"
         stop-color="#41b4bd"
         id="stop6" />
      <stop
         offset="0.82138"
         stop-color="#118eb6"
         id="stop8" />
      <stop
         offset="1"
         stop-color="#0080b4"
         id="stop10" />
    </linearGradient>
    <linearGradient
       inkscape:collect="always"
       xlink:href="#linearGradient1758"
       id="linearGradient1760"
       x1="141.96693"
       y1="83.679199"
       x2="91.69944"
       y2="137.10536"
       gradientUnits="userSpaceOnUse" />
  </defs>
  <path
     class="cls-1"
     d="M102.989,46.38862a75.62225,75.62225,0,1,1-75.6221,75.6221,75.62233,75.62233,0,0,1,75.6221-75.6221Zm0,9.8053a65.8168,65.8168,0,1,0,65.8168,65.8168A65.81695,65.81695,0,0,0,102.989,56.19392Z"
     transform="translate(-27.36688 -46.38862)"
     id="path15" />
  <circle
     class="cls-2"
     cx="102.98921"
     cy="122.01049"
     r="65.72954"
     transform="translate(-83.47649 62.17179) rotate(-45)"
     id="circle17" />
  <path
     class="cls-3"
     d="M97.30718,69.55422l-2.5168,11.6285a41.96538,41.96538,0,0,0-15.103,5.7827h0l-10.6076-7.3225-8.6133,8.5505,6.7181,10.0253.3121.4583h19.7008a5.84266,5.84266,0,0,1,.5386-.4583h0c4.5558-3.7854,9.9864-4.701,15.8306-4.701h0a28.52589,28.52589,0,0,1,15.7484,4.701h0a28.45562,28.45562,0,0,1,9.6512,10.6307h0a28.59808,28.59808,0,0,1,3.3091,13.4374h0c0,5.015-.6865,9.7347-3.3091,13.8316h0a17.65608,17.65608,0,0,1-1.8295,2.3942h0V158.274l10.5055,6.969,8.6714-8.6136-7.0908-10.6895c2.933-4.5161,4.2003-9.5689,5.3044-15.0398h0l11.7315-2.4959v-12.1906l-11.6918-2.5169.415.0414a42.44219,42.44219,0,0,0-6.01-15.0611h0l7.2584-10.6914-8.5269-8.6128-10.567,7.1136v.0413c-4.1615-2.9959-9.6338-4.221-15.1044-5.3453h0l-2.5362-11.6285Z"
     transform="translate(-27.36688 -46.38862)"
     id="path19"
     style="fill-opacity:1;fill:url(#linearGradient1760)" />
</svg>
